<?xml version="1.0" encoding="UTF-8"?>
<svg id="Layer_2" data-name="Layer 2" xmlns="http://www.w3.org/2000/svg" viewBox="0 0 16 16">
  <rect x="0" y="0" width="16" height="16" rx="2" ry="2"/>
  <g>
    <path d="m12.96991,9.84118c-.0914-.12977-.19254-.26251-.30361-.39814-.11089-.13572-.22744-.26252-.34922-.38049-.12186-.11797-.24807-.22118-.37864-.3097-.13057-.08844-.26548-.15232-.40475-.19169v-.0236c.31762-.08258.606-.19658.86504-.34212.25887-.14546.47978-.31853.66257-.51908s.32415-.42562.42434-.67538c.10001-.24971.15015-.52205.15015-.81699,0-1.53365-1.13592-2.30048-3.40775-2.30048h-.87507v1.42748h.59436c.97924,0,1.46886.36969,1.46886,1.10895,0,.35392-.13936.65086-.41781.8907-.27419.23595-.63764.35392-1.09022.35392h-.91396v-1.42708h-2.10863v6.10473h2.10863v-3.23838h.56796c.13057,0,.25134.0246.36232.07371.11098.04924.21756.12002.31988.21235.10219.09246.20338.20353.30356.3333.10001.12977.20446.27724.31336.4424l1.4558,2.17661h2.42198l-1.76916-2.50104Z" fill="#fff"/>
    <path d="m12.96991,9.84118c-.0914-.12977-.19254-.26251-.30361-.39814-.11089-.13572-.22744-.26252-.34922-.38049-.12186-.11797-.24807-.22118-.37864-.3097-.13057-.08844-.26548-.15232-.40475-.19169v-.0236c.31762-.08258.606-.19658.86504-.34212.25887-.14546.47978-.31853.66257-.51908s.32415-.42562.42434-.67538c.10001-.24971.15015-.52205.15015-.81699,0-1.53365-1.13592-2.30048-3.40775-2.30048h-.87507v1.42748h.59436c.97924,0,1.46886.36969,1.46886,1.10895,0,.35392-.13936.65086-.41781.8907-.27419.23595-.63764.35392-1.09022.35392h-.91396v-1.42708h-2.10863v6.10473h2.10863v-3.23838h.56796c.13057,0,.25134.0246.36232.07371.11098.04924.21756.12002.31988.21235.10219.09246.20338.20353.30356.3333.10001.12977.20446.27724.31336.4424l1.4558,2.17661h2.42198l-1.76916-2.50104Z" fill="none" stroke="#fff" stroke-miterlimit="10" stroke-width=".35845"/>
  </g>
  <path d="m8.54853,5.4132h-2.61459v6.96323h-2.07121v-6.96323H1.26094v-1.5639h7.2876v1.5639Z" fill="#fff" stroke="#fff" stroke-miterlimit="10" stroke-width=".26741"/>
</svg>